PathFileType	4	(X/Y/Z)	7_coords_data.trc
DataRate	CameraRate	NumFrames	NumMarkers	Units	OrigDataRate	OrigDataStartFrame	OrigNumFrames
30.0	30.0	9	21	m	30.0	20	49
Frame#	Time	THUMB_TIP	THUMB_IP	THUMB_MCP	THUMB_CMC	INDEX_TIP	INDEX_DIP	INDEX_PIP	INDEX_MCP	MIDDLE_TIP	MIDDLE_DIP	MIDDLE_PIP	MIDDLE_MCP	RING_TIP	RING_DIP	RING_PIP	RING_MCP	PINKY_TIP	PINKY_DIP	PINKY_PIP	PINKY_MCP	WRIST
X1	Y1	Z1	X2	Y2	Z2	X3	Y3	Z3	X4	Y4	Z4	X5	Y5	Z5	X6	Y6	Z6	X7	Y7	Z7	X8	Y8	Z8	X9	Y9	Z9	X10	Y10	Z10	X11	Y11	Z11	X12	Y12	Z12	X13	Y13	Z13	X14	Y14	Z14	X15	Y15	Z15	X16	Y16	Z16	X17	Y17	Z17	X18	Y18	Z18	X19	Y19	Z19	X20	Y20	Z20	X21	Y21	Z21
18	0.6333333333333304	0.5109661797955514	-0.011445454472501115	-0.16246707540325073	0.5007090005283253	-0.017095072394312294	-0.1426965900572219	0.48182870237934783	-0.027718055230397387	-0.12034694626878639	0.4755113351738429	-0.030488171625057903	-0.07627533038337952	0.5115228078394018	-0.01628592332740808	-0.11101964748691501	0.5280456777448733	-0.01126505348438167	-0.11647726932304947	0.5344043216681461	0.011176289271563666	-0.1258561613560784	0.49345012666538857	0.019804022602946447	-0.1179851878941317	0.508739564478624	-0.017690454508227815	-0.09391332523102258	0.5263955192124536	-0.013907033613011155	-0.09531081897576765	0.5417164543041296	0.009964030629343368	-0.10200789220621931	0.5028935495223583	0.03150292327258031	-0.09700728334242714	0.5074602855590392	-0.009053104540169832	-0.07723055187218764	0.525320539067212	-0.006605183465426712	-0.07709261335096984	0.5421725687241327	0.011614857960652314	-0.07914667417632026	0.5103006722718119	0.03631843137969226	-0.07620788005922874	0.5083629876916426	-0.012993319758240474	-0.058741640312578225	0.5254658846078312	-0.012527233089016931	-0.058218495694910666	0.538818769135074	0.0036549675488110056	-0.05741296709876931	0.5141244950356398	0.029597531933684307	-0.053163304660561184	0.462283081001861	-0.023011742144276925	-0.051989820119430985
19	0.6666666666666637	0.5112243963796419	-0.011366511283225855	-0.1623278255642162	0.5008755185038338	-0.01703777831627462	-0.14261139949478213	0.4819355082530401	-0.027688576114056507	-0.12032560765400147	0.4755343212465263	-0.030474278282322298	-0.07626707081563888	0.5120091791529094	-0.016125534549240927	-0.11112869334908287	0.5284814568924738	-0.010938928362246636	-0.11658425769493075	0.5345435195545729	0.011623484356732217	-0.1258685865117729	0.4935163939198731	0.019835755294988155	-0.11793324391102467	0.5088281606046711	-0.017637287144923075	-0.09393328506870657	0.5264838839623295	-0.013835520023812609	-0.09528309967622806	0.5417613860891056	0.010082039639325968	-0.10191316894634583	0.5028998367461712	0.031556675484850416	-0.09693643116253625	0.5074741215144315	-0.009023027208476586	-0.07721678793860998	0.5253327181597784	-0.006564212079933629	-0.07705945382769697	0.5421683177351994	0.011678329909472374	-0.07904747487910735	0.5102845859899817	0.036367804685725647	-0.07611859808556365	0.5083486536880554	-0.013020072487521572	-0.05872032623625678	0.525450013790538	-0.012537787044882953	-0.05816275705038387	0.5387727872555794	0.0036665320409309254	-0.05730498717196697	0.514095347232586	0.02962815430762733	-0.053073961977887274	0.4622830810018608	-0.023011742144276925	-0.051989820119430985
20	0.6999999999999968	0.5115354873467117	-0.011358638247340958	-0.16217128346385934	0.5010930538815966	-0.017037810898014705	-0.14250652866420604	0.4820657986115099	-0.027689056692132064	-0.12029539362071362	0.4755634207021223	-0.030472978032190512	-0.07625156472839467	0.5123798772508343	-0.016089381914398793	-0.11114782112972588	0.5288234034386368	-0.010804122088847734	-0.1165954329998456	0.5347240642424211	0.011831501550257806	-0.12580524176808028	0.49365157551626604	0.019821901025464772	-0.11787805563008186	0.5088544368617176	-0.017689036165317917	-0.09389677310729339	0.5265148625497109	-0.013892731202722719	-0.09519962887438493	0.5418339402298603	0.01001730345566021	-0.10176054738206974	0.5029940823263076	0.03154878444573361	-0.09686068152615745	0.5074411624768507	-0.009087339812242412	-0.07716743612308519	0.5253037639601241	-0.006660909933955406	-0.07696767052164633	0.5421789684298433	0.011552457444259812	-0.07888618605490072	0.5103677977786991	0.03634218726112137	-0.07601572417381097	0.5082917460655431	-0.013094766086000575	-0.05861629523221201	0.5253931846000123	-0.012631702825054658	-0.058045005053641296	0.5387413250676716	0.0035493131495367702	-0.05714284814619541	0.514137605839417	0.029588736012415406	-0.052960873958635024	0.4622830810018609	-0.023011742144276925	-0.051989820119430985
21	0.7333333333333302	0.5119746526958259	-0.011380153210904576	-0.16196615132543618	0.5013938353739239	-0.017053911459584126	-0.14237393929779418	0.48225407532842657	-0.027694062952733245	-0.1202543379993164	0.47560613030131627	-0.030462746474234415	-0.07623128473770924	0.5123566280218839	-0.016098355077234672	-0.11101769974138387	0.5288504323634232	-0.010903464260953344	-0.1163998487313257	0.5348938476763794	0.011713159088788783	-0.12556365321478324	0.49381100545465006	0.019815816684507492	-0.11780587589966035	0.5085826344804325	-0.017782152060511258	-0.09372948687937055	0.5262749224819552	-0.01410931789987302	-0.0949514666253648	0.5418528385117692	0.009649852465389408	-0.10145069009609653	0.5031666653972893	0.03150225140855001	-0.09676021131611667	0.5070584664885577	-0.009109749629877761	-0.07701512125388887	0.5249411498842196	-0.006843854634338786	-0.07674061362247009	0.5420831824843585	0.011125168790259599	-0.07859665632187485	0.5105289179998025	0.03625987831706834	-0.0758956187727764	0.5078870058513267	-0.01312894694845157	-0.058432985245839175	0.5249902527058738	-0.01284854993185236	-0.057800273190076634	0.5385552904283035	0.0031496563985218273	-0.05687336175966318	0.5142476165979147	0.029482777807560256	-0.05280062793429663	0.462283081001861	-0.023011742144276925	-0.051989820119430985
22	0.7666666666666633	0.5122964755505099	-0.011191371825819973	-0.16177019598381853	0.5015829994646328	-0.016922299399140917	-0.14226691679013698	0.48238591056191105	-0.02761516346370918	-0.12022254254731357	0.4756544361920577	-0.030428955145168524	-0.07621504512719923	0.511732908988187	-0.015846080383075223	-0.11078157069777517	0.5283866910405863	-0.011025246347679762	-0.11601713203867814	0.5348787917384257	0.01146444212553277	-0.1251864490201643	0.49381816858769234	0.019943752853084695	-0.11771901237436128	0.5077387958774988	-0.01740276509494265	-0.09342277403329502	0.5255211306397477	-0.014152783355228293	-0.09453010826234831	0.5416330879209741	0.00924618485904094	-0.10103415846783992	0.5031832340218837	0.031575274141988685	-0.0966559821428431	0.5060523436122075	-0.008434671109348701	-0.07657808722216042	0.5239987843656833	-0.006751653316278916	-0.07627359520224053	0.5416621677980795	0.0107006002844241	-0.07817193894795638	0.5104935993325252	0.036341298721882964	-0.07576450100537879	0.5069763822671526	-0.012652370313096073	-0.057896136287569955	0.5240843951731465	-0.012816019131743794	-0.05735844355701014	0.5380437257160982	0.002844005515025838	-0.05651420552470532	0.5141537584305216	0.029578386454165218	-0.0525866375883004	0.4622830810018609	-0.023011742144276925	-0.051989820119430985
23	0.7999999999999965	0.5125151750498871	-0.010825631405522729	-0.16157396344491376	0.5016655588938913	-0.01663857422193904	-0.14217047084485251	0.4824791614563274	-0.027462961515749118	-0.12018104627117521	0.47575072592657686	-0.030371386571433012	-0.07617923700135687	0.5111399157209369	-0.015397251011888602	-0.11047755419590494	0.5278917394167876	-0.010844904899675156	-0.11564016475043548	0.5346871194037753	0.01153228337158907	-0.12486481048373288	0.4936223948894831	0.020202397749185308	-0.11764306476370862	0.5067793875311554	-0.016643560235217514	-0.09301919187309826	0.5246583920872131	-0.013957655431034	-0.09408084693352536	0.5412285233922328	0.009097636462221725	-0.10066065044511918	0.5029790806821657	0.03181754514448798	-0.0965455802344457	0.5051903081304537	-0.007687011321880766	-0.07596568257409442	0.5231723759837997	-0.006421209724524868	-0.07575836148545567	0.5410956613261334	0.010748307825051984	-0.07779391758933962	0.5101490242676604	0.03667704552147488	-0.07561973952826706	0.5061285142445489	-0.01202253339404491	-0.05742164579405018	0.5232351094529969	-0.012450601938905792	-0.05699601955519795	0.5374207271767079	0.0030098249544765476	-0.05625072158047739	0.5137629711491187	0.029962666330018983	-0.05241166277343601	0.462283081001861	-0.023011742144276925	-0.051989820119430985
24	0.8333333333333297	0.5126923273817227	-0.010329560490260348	-0.16136754738428843	0.5017030365564898	-0.01625260913483806	-0.14207628039861786	0.482532089394505	-0.027243005253482555	-0.1201558338231562	0.47579033193472653	-0.030333959719853976	-0.07616850943486975	0.5111021889279906	-0.015092340266974369	-0.11011401136565357	0.5277498289557215	-0.01030442761455641	-0.11539908222042072	0.5343545436343539	0.012090828009104326	-0.12471788592930722	0.49323086329448174	0.020559237417885456	-0.11759292618280404	0.5064372797159692	-0.01627130826170642	-0.09256724998654942	0.5243002221225612	-0.01356130505993347	-0.09382071367774913	0.5407495196171765	0.009538943538580424	-0.10054445345710616	0.5024911125332776	0.032248566260618006	-0.09645602536976128	0.5052295068127656	-0.007669008864081395	-0.0753994840450748	0.5231785631335487	-0.0059894347536053605	-0.0755015036548281	0.5406989350286044	0.011572145250562493	-0.07769409468284749	0.5095247855560836	0.03722411734846809	-0.07548738533333799	0.5060764542877204	-0.011892184426278929	-0.0572783751909548	0.5231904053247198	-0.011861062200949624	-0.056944142771405026	0.5370513666337833	0.0038936686558548317	-0.05625550192285145	0.5131158547286555	0.030584634598601945	-0.05230999081748067	0.4622830810018609	-0.023011742144276925	-0.051989820119430985
25	0.8666666666666629	0.5128513886691433	-0.009824285043361858	-0.16116145547874128	0.501711407877072	-0.015865642681837655	-0.14199370063274236	0.4825525995626392	-0.02706189500724654	-0.12016701976192279	0.47577787319115117	-0.03027425220498814	-0.07619346129975635	0.5120451475264153	-0.015003864958964663	-0.10988707743366455	0.5282914771259057	-0.009349123475252297	-0.11555105777412278	0.5340064688468211	0.013264366095068203	-0.12493075883987503	0.4927522460644428	0.0208813317738209	-0.11760225077406805	0.5073890127172644	-0.01673513426424722	-0.09240324904180841	0.5250347055912526	-0.013001454564305681	-0.09404311455310099	0.5404459064982111	0.0107804570844936	-0.1008493701267672	0.5018094071269446	0.032773180078676134	-0.0964121443453494	0.5064944449754866	-0.00833274914381854	-0.07535867977657007	0.5242724923199304	-0.005372690819654746	-0.0757818668938901	0.5406731753220627	0.013231665964575368	-0.07803475053683373	0.5087230884385971	0.03787052003122893	-0.07541947762159817	0.5071750133512941	-0.01245228240404439	-0.05780288637539133	0.5242316454956695	-0.011060290812359042	-0.05743729192776492	0.5371438272651684	0.005476390464477232	-0.056646246227598396	0.5123452853950208	0.0313050833471501	-0.052310995821093	0.4622830810018608	-0.023011742144276925	-0.051989820119430985
26	0.8999999999999961	0.5132211454791612	-0.009553404181931624	-0.16088695240524498	0.5018870697845755	-0.015667771470158742	-0.14185662816171024	0.4826486733633585	-0.026996811646507357	-0.12016891385561562	0.47575537916514166	-0.03024049699914444	-0.07621608686542158	0.5142199900652985	-0.014988264855370526	-0.11009644707606492	0.52975949474421	-0.00800831962947457	-0.11624495575521454	0.5338627017319842	0.014980195902012494	-0.1255563293957716	0.4924554932186246	0.021021493745600695	-0.11764545728858866	0.5098994255250588	-0.017441666932394018	-0.09287513435937422	0.5270784583535993	-0.012061913215754339	-0.0948598461833503	0.5406330045623594	0.012848638990064276	-0.10157908839328622	0.5011974790488363	0.033202510767360804	-0.09641119209540627	0.5091995820403062	-0.009269137484462675	-0.07614967777112092	0.5265730636643616	-0.004490532727886798	-0.07672158059420087	0.5412212652811365	0.015540571897461164	-0.07881084263680749	0.5080296686495631	0.03838208910444196	-0.07544872444582507	0.5097441528532881	-0.01332106799047672	-0.058952256060668895	0.5265387187704453	-0.01006227286929584	-0.058384092340934446	0.5379592768470413	0.00752403797659873	-0.05733311990995804	0.5117652498473862	0.031833009830056214	-0.05245149231568602	0.4622830810018608	-0.023011742144276925	-0.051989820119430985
